<?xml version="1.0" encoding="UTF-8"?>
<svg xmlns="http://www.w3.org/2000/svg" xmlns:xlink="http://www.w3.org/1999/xlink" width="67px" height="100px" viewBox="0 0 67 100" version="1.1">
<g id="surface1">
<path style=" stroke:none;fill-rule:nonzero;fill:rgb(3.921569%,81.176471%,51.372549%);fill-opacity:1;" d="M 16.753906 100 C 25.996094 100 33.5 92.535156 33.5 83.332031 L 33.5 66.667969 L 16.753906 66.667969 C 7.507812 66.667969 0.0078125 74.132812 0.0078125 83.332031 C 0.0078125 92.535156 7.507812 100 16.753906 100 Z M 16.753906 100 "/>
<path style=" stroke:none;fill-rule:nonzero;fill:rgb(63.529412%,34.901961%,100%);fill-opacity:1;" d="M 0.0078125 50 C 0.0078125 40.800781 7.507812 33.332031 16.753906 33.332031 L 33.5 33.332031 L 33.5 66.667969 L 16.753906 66.667969 C 7.507812 66.667969 0.0078125 59.199219 0.0078125 50 Z M 0.0078125 50 "/>
<path style=" stroke:none;fill-rule:nonzero;fill:rgb(94.901961%,30.588235%,11.764706%);fill-opacity:1;" d="M 0.0078125 16.667969 C 0.0078125 7.464844 7.507812 0 16.753906 0 L 33.5 0 L 33.5 33.332031 L 16.753906 33.332031 C 7.507812 33.332031 0.0078125 25.867188 0.0078125 16.667969 Z M 0.0078125 16.667969 "/>
<path style=" stroke:none;fill-rule:nonzero;fill:rgb(100%,44.705882%,38.431373%);fill-opacity:1;" d="M 33.5 0 L 50.246094 0 C 59.492188 0 66.992188 7.464844 66.992188 16.667969 C 66.992188 25.867188 59.492188 33.332031 50.246094 33.332031 L 33.5 33.332031 Z M 33.5 0 "/>
<path style=" stroke:none;fill-rule:nonzero;fill:rgb(10.196078%,73.72549%,99.607843%);fill-opacity:1;" d="M 66.992188 50 C 66.992188 59.199219 59.492188 66.667969 50.246094 66.667969 C 41.003906 66.667969 33.5 59.199219 33.5 50 C 33.5 40.800781 41.003906 33.332031 50.246094 33.332031 C 59.492188 33.332031 66.992188 40.800781 66.992188 50 Z M 66.992188 50 "/>
</g>
</svg>
